<svg width="20" height="20" viewBox="0 0 20 20" fill="none" xmlns="http://www.w3.org/2000/svg">
<path fill-rule="evenodd" clip-rule="evenodd" d="M10 3.33332C7.34733 3.33332 5.11111 5.6719 5.11111 8.66667C5.11111 10.1621 5.75534 11.6943 6.64296 13.0834C7.52511 14.4639 8.60807 15.6417 9.3955 16.4138C9.73928 16.7509 10.2607 16.7509 10.6045 16.4138C11.3919 15.6417 12.4749 14.4639 13.3571 13.0834C14.2447 11.6943 14.8889 10.1621 14.8889 8.66667C14.8889 5.6719 12.6527 3.33332 10 3.33332ZM3.77777 8.66667C3.77777 5.034 6.51618 1.99998 10 1.99998C13.4838 1.99998 16.2222 5.034 16.2222 8.66667C16.2222 10.5254 15.4315 12.3131 14.4806 13.8013C13.5242 15.2981 12.365 16.5549 11.5381 17.3658C10.6758 18.2114 9.32425 18.2114 8.46196 17.3658C7.63498 16.5549 6.4758 15.2981 5.51941 13.8013C4.56848 12.3131 3.77777 10.5254 3.77777 8.66667ZM10 6.89266C9.26363 6.89266 8.66667 7.48961 8.66667 8.22599C8.66667 8.96238 9.26363 9.55933 10 9.55933C10.7364 9.55933 11.3333 8.96238 11.3333 8.22599C11.3333 7.48961 10.7364 6.89266 10 6.89266ZM7.33334 8.22599C7.33334 6.75323 8.52725 5.55932 10 5.55932C11.4728 5.55932 12.6667 6.75323 12.6667 8.22599C12.6667 9.69876 11.4728 10.8927 10 10.8927C8.52725 10.8927 7.33334 9.69876 7.33334 8.22599Z" fill="#393B3E"/>
</svg>
